<svg width="39" height="32" viewBox="0 0 39 32" fill="none" xmlns="http://www.w3.org/2000/svg">
<g clip-path="url(#clip0_104:646)">
<path d="M31.0377 11.9044L30.5407 12.7956C30.3588 13.1259 29.9709 13.263 29.6255 13.1322C28.9103 12.8579 28.2557 12.4653 27.6799 11.9729C27.4011 11.7361 27.3284 11.3185 27.5102 10.9944L28.0072 10.1032C27.589 9.6046 27.2617 9.02499 27.0435 8.39551H26.0434C25.6798 8.39551 25.3646 8.12752 25.304 7.75357C25.1828 7.00568 25.1767 6.2204 25.304 5.44135C25.3646 5.0674 25.6798 4.79317 26.0434 4.79317H27.0435C27.2617 4.1637 27.589 3.58408 28.0072 3.08549L27.5102 2.19425C27.3284 1.87017 27.395 1.4526 27.6799 1.21576C28.2557 0.723403 28.9163 0.33076 29.6255 0.0565339C29.9709 -0.0743469 30.3588 0.0627663 30.5407 0.393085L31.0377 1.28432C31.674 1.1659 32.3226 1.1659 32.959 1.28432L33.456 0.393085C33.6378 0.0627663 34.0257 -0.0743469 34.3712 0.0565339C35.0864 0.33076 35.7409 0.723403 36.3167 1.21576C36.5955 1.4526 36.6683 1.87017 36.4864 2.19425L35.9894 3.08549C36.4076 3.58408 36.7349 4.1637 36.9531 4.79317H37.9532C38.3168 4.79317 38.632 5.06117 38.6926 5.43511C38.8138 6.183 38.8199 6.96829 38.6926 7.74734C38.632 8.12129 38.3168 8.39551 37.9532 8.39551H36.9531C36.7349 9.02499 36.4076 9.6046 35.9894 10.1032L36.4864 10.9944C36.6683 11.3185 36.6016 11.7361 36.3167 11.9729C35.7409 12.4653 35.0803 12.8579 34.3712 13.1322C34.0257 13.263 33.6378 13.1259 33.456 12.7956L32.959 11.9044C32.3286 12.0228 31.674 12.0228 31.0377 11.9044ZM30.4013 8.2397C32.7347 10.0845 35.3955 7.34847 33.6014 4.94898C31.268 3.09796 28.6072 5.84022 30.4013 8.2397ZM23.413 17.8314L25.4555 18.8784C26.0677 19.2399 26.3344 20.0065 26.0919 20.6921C25.5525 22.2003 24.4918 23.5839 23.51 24.793C23.0615 25.3477 22.2857 25.4848 21.6735 25.1233L19.9098 24.0763C18.94 24.9301 17.8127 25.6095 16.5823 26.052V28.1461C16.5823 28.869 16.0793 29.4923 15.3883 29.6169C13.8973 29.8787 12.3336 29.8911 10.7881 29.6169C10.0911 29.4923 9.57587 28.8752 9.57587 28.1461V26.052C8.3455 25.6032 7.21817 24.9301 6.24842 24.0763L4.48469 25.1171C3.87859 25.4786 3.09673 25.3415 2.64822 24.7868C1.66635 23.5777 0.62993 22.1941 0.0905066 20.6921C-0.151931 20.0127 0.11475 19.2462 0.726905 18.8784L2.7452 17.8314C2.50882 16.5288 2.50882 15.1889 2.7452 13.88L0.726905 12.8268C0.11475 12.4653 -0.157992 11.6987 0.0905066 11.0194C0.62993 9.51112 1.66635 8.12752 2.64822 6.91843C3.09673 6.36374 3.87253 6.22663 4.48469 6.58811L6.24842 7.63516C7.21817 6.78132 8.3455 6.10198 9.57587 5.65948V3.55915C9.57587 2.84243 10.0729 2.21918 10.7638 2.09454C12.2548 1.83277 13.8246 1.82031 15.3701 2.0883C16.0671 2.21295 16.5823 2.82996 16.5823 3.55915V5.65325C17.8127 6.10198 18.94 6.77508 19.9098 7.62893L21.6735 6.58188C22.2796 6.2204 23.0615 6.35751 23.51 6.9122C24.4918 8.12129 25.5222 9.50488 26.0616 11.0131C26.3041 11.6925 26.0677 12.4591 25.4555 12.8268L23.413 13.8738C23.6494 15.1826 23.6494 16.5226 23.413 17.8314ZM16.2853 19.1464C19.8734 14.3475 14.5458 8.86918 9.87892 12.5588C6.29084 17.3577 11.6184 22.836 16.2853 19.1464ZM31.0377 30.5331L30.5407 31.4243C30.3588 31.7546 29.9709 31.8917 29.6255 31.7609C28.9103 31.4866 28.2557 31.094 27.6799 30.6016C27.4011 30.3648 27.3284 29.9472 27.5102 29.6231L28.0072 28.7319C27.589 28.2333 27.2617 27.6537 27.0435 27.0242H26.0434C25.6798 27.0242 25.3646 26.7562 25.304 26.3823C25.1828 25.6344 25.1767 24.8491 25.304 24.0701C25.3646 23.6961 25.6798 23.4219 26.0434 23.4219H27.0435C27.2617 22.7924 27.589 22.2128 28.0072 21.7142L27.5102 20.823C27.3284 20.4989 27.395 20.0813 27.6799 19.8445C28.2557 19.3521 28.9163 18.9595 29.6255 18.6852C29.9709 18.5544 30.3588 18.6915 30.5407 19.0218L31.0377 19.913C31.674 19.7946 32.3226 19.7946 32.959 19.913L33.456 19.0218C33.6378 18.6915 34.0257 18.5544 34.3712 18.6852C35.0864 18.9595 35.7409 19.3521 36.3167 19.8445C36.5955 20.0813 36.6683 20.4989 36.4864 20.823L35.9894 21.7142C36.4076 22.2128 36.7349 22.7924 36.9531 23.4219H37.9532C38.3168 23.4219 38.632 23.6899 38.6926 24.0638C38.8138 24.8117 38.8199 25.597 38.6926 26.376C38.632 26.75 38.3168 27.0242 37.9532 27.0242H36.9531C36.7349 27.6537 36.4076 28.2333 35.9894 28.7319L36.4864 29.6231C36.6683 29.9472 36.6016 30.3648 36.3167 30.6016C35.7409 31.094 35.0803 31.4866 34.3712 31.7609C34.0257 31.8917 33.6378 31.7546 33.456 31.4243L32.959 30.5331C32.3286 30.6515 31.674 30.6515 31.0377 30.5331ZM30.4013 26.8622C32.7347 28.707 35.3955 25.9709 33.6014 23.5715C31.268 21.7267 28.6072 24.4627 30.4013 26.8622Z" fill="#2B1D8A"/>
</g>
<defs>
<clipPath id="clip0_104:646">
<rect width="38.79" height="31.91" fill="white"/>
</clipPath>
</defs>
</svg>
