<svg width="39" height="32" viewBox="0 0 39 32" fill="none" xmlns="http://www.w3.org/2000/svg">
<path d="M12.6063 21.9381C12.4615 21.9381 12.3166 21.9599 12.1784 22.0061C11.3929 22.2684 10.5668 22.4367 9.69709 22.4367C8.82734 22.4367 8.00124 22.2684 7.21514 22.0061C7.07695 21.9599 6.9327 21.9381 6.78784 21.9381C3.02643 21.9381 -0.0203914 25.0843 -0.000390368 28.9571C0.00809492 30.5937 1.31665 31.91 2.90885 31.91H16.4853C18.0775 31.91 19.3861 30.5937 19.3946 28.9571C19.4146 25.0843 16.3677 21.9381 12.6063 21.9381ZM9.69709 19.9438C12.9106 19.9438 15.5156 17.2651 15.5156 13.9606C15.5156 10.6562 12.9106 7.9775 9.69709 7.9775C6.48358 7.9775 3.8786 10.6562 3.8786 13.9606C3.8786 17.2651 6.48358 19.9438 9.69709 19.9438ZM35.8803 0H12.6063C11.002 0 9.69709 1.38671 9.69709 3.09066V5.98312C11.1166 5.98312 12.4306 6.40568 13.5761 7.0925V3.98875H34.9105V21.9381H31.0315V17.9494H23.2736V21.9381H18.6527C19.8103 22.9783 20.6601 24.3519 21.0583 25.9269H35.8803C37.4846 25.9269 38.7895 24.5402 38.7895 22.8362V3.09066C38.7895 1.38671 37.4846 0 35.8803 0Z" fill="#2B1D8A"/>
</svg>
