<svg width="1125" height="779" viewBox="0 0 1125 779" fill="none" xmlns="http://www.w3.org/2000/svg">
<g clip-path="url(#clip0_104:671)">
<path d="M-33.6352 -116.831C-3.44459 -167.373 112.503 -173.99 211.593 -153.287C310.596 -132.123 373.381 -59.1558 437 -18C504 50 527 40.5047 593 71C659 101.495 820.216 116 842 183.74C855.391 225.382 773.456 269.923 724.406 322.133C675.443 373.883 647.909 427.675 597 439C546.177 449.864 434 424.994 356 416C272.662 406.391 64.5592 423.03 -13.841 409.112C-92.2412 395.194 -8.3851 343.832 -24.6706 292.103C-40.3804 240.961 -28.2057 187.447 -33.6353 111.074C-39.7279 34.575 -63.9132 -65.8285 -33.6352 -116.831Z" fill="#2B1D8A"/>
</g>
<defs>
<clipPath id="clip0_104:671">
<rect width="937" height="1349.5" fill="white" transform="translate(-376 526.584) rotate(-79.2593)"/>
</clipPath>
</defs>
</svg>
