<svg width="273" height="315" viewBox="0 0 273 315" fill="none" xmlns="http://www.w3.org/2000/svg">
<path d="M272.999 198.944C272.999 198.944 272.999 205.542 272.999 206.128C272.999 206.714 272.902 206.959 272.902 206.959C272.266 209.695 269.528 211.406 269.528 211.406L261.655 216L113.399 302.106L97.459 311.342C96.9701 311.587 94.7697 312.515 94.7697 312.515C92.6671 313.395 89.6844 313.737 89.6844 313.737C88.462 313.932 87.3374 314.03 86.2616 314.03C80.6385 314.128 77.2157 312.124 77.2157 312.124L37.9514 289.498C37.9514 289.498 5.19035 270.586 4.26131 270.048C3.28337 269.462 2.10984 268.387 2.10984 268.387C-0.237216 266.09 0.00726758 263.598 0.00726758 263.598L0.0561676 256.121L40.2006 247.715L272.999 198.944Z" fill="url(#paint0_linear_121:2986)"/>
<path opacity="0.71" d="M268.647 204.76L261.655 208.816L168.457 155.06L12.4754 245.663L23.0372 251.771L0.446777 254.361C1.03354 252.7 2.40265 251.185 4.45632 249.963L175.156 150.809C181.023 147.388 190.656 148.072 196.573 151.444L268.549 192.982C274.417 196.403 274.515 201.339 268.647 204.76Z" fill="white"/>
<path d="M88.2664 301.422L86.2127 305.38V314.03C80.3451 314.128 77.2157 312.124 77.2157 312.124L37.9514 289.498C37.9514 289.498 5.23925 270.586 4.26131 270.048C3.28337 269.462 2.10984 268.387 2.10984 268.387C-0.237216 266.09 0.00726758 263.598 0.00726758 263.598L0.0561676 256.121L40.2006 247.715L88.2664 301.422Z" fill="url(#paint1_linear_121:2986)"/>
<path d="M210.314 168.548V175.732C210.167 175.781 210.02 175.829 209.874 175.927V168.743C210.02 168.695 210.167 168.597 210.314 168.548Z" fill="#B8B8B8"/>
<path d="M236.131 182.28C236.913 182.72 236.913 183.453 236.131 183.893C235.349 184.333 234.077 184.333 233.344 183.893L209.873 170.356C209.091 169.916 209.091 169.183 209.873 168.744C210.656 168.304 211.927 168.304 212.66 168.744L236.131 182.28Z" fill="#DCB200"/>
<path d="M240.727 185.603C241.167 185.848 241.216 186.287 240.727 186.581C240.287 186.825 239.505 186.825 239.065 186.581C238.625 186.336 238.625 185.896 239.065 185.603C239.505 185.31 240.287 185.31 240.727 185.603Z" fill="#DCB200"/>
<path d="M168.458 155.011V162.195L12.4761 252.798V245.614L168.458 155.011Z" fill="#C5C5C5"/>
<path d="M55.8473 277.672V284.855C55.8473 283.78 55.1138 282.705 53.6958 281.874V274.691C55.1138 275.522 55.8473 276.597 55.8473 277.672Z" fill="#858585"/>
<path d="M268.648 204.76L261.656 208.816L168.458 155.061L12.477 245.663L23.0388 251.772L105.675 299.468L97.949 303.964C92.0814 307.384 82.3508 308.02 76.4832 304.599L4.50678 263.06C0.692815 260.861 -0.676295 257.441 0.448336 254.411C1.0351 252.749 2.40421 251.234 4.45788 250.012L175.157 150.858C181.025 147.437 190.658 148.121 196.574 151.493L268.551 193.032C274.418 196.404 274.516 201.339 268.648 204.76Z" fill="url(#paint2_linear_121:2986)"/>
<path d="M212.71 168.744C211.927 168.304 210.656 168.304 209.923 168.744C209.189 169.183 209.14 169.916 209.923 170.356L233.393 183.893C234.176 184.333 235.447 184.333 236.18 183.893C236.914 183.453 236.963 182.72 236.18 182.28L212.71 168.744Z" fill="#212D3A"/>
<path d="M241.998 184.87C240.825 184.186 238.967 184.186 237.842 184.87C236.668 185.554 236.717 186.629 237.842 187.314C239.015 187.998 240.873 187.998 241.998 187.314C243.172 186.629 243.172 185.554 241.998 184.87Z" fill="#DCDCDC"/>
<path d="M241.998 184.87C243.172 185.554 243.172 186.629 241.998 187.314C240.825 187.998 238.967 187.998 237.842 187.314C236.669 186.629 236.669 185.554 237.842 184.87C238.967 184.186 240.825 184.186 241.998 184.87Z" fill="#212D3A"/>
<path d="M239.065 186.532C239.505 186.776 240.287 186.776 240.727 186.532C241.167 186.287 241.167 185.848 240.727 185.554C240.287 185.261 239.505 185.31 239.065 185.554C238.625 185.848 238.625 186.287 239.065 186.532Z" fill="white"/>
<path d="M54.0386 274.251C56.8746 275.913 56.9235 278.551 54.0875 280.213C51.2514 281.874 46.6551 281.874 43.8191 280.213C40.9831 278.551 40.9342 275.913 43.7702 274.251C46.6062 272.589 51.2026 272.589 54.0386 274.251Z" fill="#212D3A"/>
<path d="M12.4761 245.614L168.458 155.011L261.655 208.816L105.674 299.418L12.4761 245.614Z" fill="#AEAEAE"/>
<path d="M261.655 208.816L246.986 217.319L232.513 225.724L229.628 227.386L214.959 235.938L105.674 299.418C74.4775 281.435 43.3301 263.451 12.1338 245.467C64.1113 215.267 116.138 185.066 168.115 154.865C199.312 172.848 230.459 190.832 261.655 208.816Z" fill="url(#paint3_linear_121:2986)"/>
<path d="M243.515 222.988L241.803 222.059C241.803 222.059 241.559 221.961 241.217 222.108C240.874 222.255 215.937 236.622 215.937 236.622C215.937 236.622 215.008 237.208 214.519 238.137C214.03 239.114 213.932 240.092 214.128 240.483C214.323 240.874 214.47 240.971 214.47 240.971L216.132 241.949L243.515 222.988Z" fill="url(#paint4_linear_121:2986)"/>
<path d="M252.023 217.71L249.969 216.537C249.969 216.537 249.725 216.342 248.698 216.977C247.671 217.612 246.84 218.736 246.448 219.909C246.057 221.131 246.253 222.01 246.4 222.255C246.546 222.499 246.595 222.597 246.693 222.694C246.742 222.743 248.6 223.867 248.6 223.867L252.023 217.71Z" fill="url(#paint5_linear_121:2986)"/>
<path d="M242.341 223.183C243.368 222.597 244.199 223.085 244.248 224.258C244.248 225.431 243.417 226.897 242.39 227.484L217.55 241.802C216.524 242.389 215.692 241.9 215.692 240.727C215.692 239.554 216.524 238.088 217.55 237.502L242.341 223.183Z" fill="url(#paint6_linear_121:2986)"/>
<path d="M250.262 217.905C251.631 217.124 252.756 217.759 252.756 219.323C252.756 220.886 251.631 222.841 250.262 223.623C248.893 224.405 247.768 223.77 247.768 222.206C247.719 220.642 248.844 218.687 250.262 217.905Z" fill="url(#paint7_linear_121:2986)"/>
<path d="M44.1612 288.814C44.6991 289.107 45.1392 289.84 45.1392 290.475C45.1392 291.062 44.6991 291.306 44.1612 291.013L35.0175 285.735C34.4796 285.442 34.0396 284.709 34.0396 284.074C34.0396 283.487 34.4796 283.243 35.0175 283.536L44.1612 288.814Z" fill="#212D3A"/>
<path d="M48.4152 291.208C47.7796 290.817 47.2417 291.111 47.2417 291.893C47.2417 292.626 47.7796 293.554 48.4152 293.945C49.0509 294.336 49.5888 294.043 49.5888 293.261C49.5888 292.528 49.0509 291.599 48.4152 291.208Z" fill="#212D3A"/>
<path d="M31.2033 281.093C30.5676 280.702 30.0298 280.995 30.0298 281.777C30.0298 282.51 30.5676 283.438 31.2033 283.829C31.839 284.22 32.3768 283.927 32.3768 283.145C32.3768 282.412 31.839 281.484 31.2033 281.093Z" fill="#212D3A"/>
<path d="M261.655 208.816L105.674 299.418C74.4775 281.435 43.3301 263.451 12.1338 245.467C64.1113 215.267 116.138 185.066 168.115 154.865C199.312 172.848 230.459 190.832 261.655 208.816Z" fill="url(#paint8_linear_121:2986)"/>
<path opacity="0.5" d="M261.655 208.816L12.1338 245.467C29.3944 235.449 46.6062 225.431 63.8668 215.413C70.3702 211.65 76.8735 207.838 83.4257 204.076C93.7429 198.065 104.06 192.103 114.377 186.092C132.323 175.683 150.219 165.274 168.164 154.865C177.895 160.485 187.625 166.105 197.356 171.676C202.93 174.901 208.553 178.126 214.127 181.352C217.404 183.209 220.631 185.115 223.907 186.972C236.473 194.302 249.089 201.534 261.655 208.816Z" fill="#89FDFF"/>
<path opacity="0.5" d="M223.858 187.02L63.8667 215.413C70.37 211.65 76.8733 207.838 83.4255 204.076L214.127 181.401C217.354 183.258 220.631 185.163 223.858 187.02Z" fill="#89FDFF"/>
<path opacity="0.5" d="M197.307 171.724L114.329 186.141C132.274 175.732 150.17 165.323 168.115 154.914C177.846 160.485 187.576 166.105 197.307 171.724Z" fill="#89FDFF"/>
<path d="M148.948 136.588C149.143 139.716 141.026 194.107 153.886 204.613C166.746 215.12 178.726 217.564 178.726 217.564H99.4639C99.4639 217.564 137.506 216.342 123.423 134.829L148.948 136.588Z" fill="#F9F9F9"/>
<path d="M92.8139 229.097C103.886 229.097 112.862 220.126 112.862 209.06C112.862 197.995 103.886 189.024 92.8139 189.024C81.7418 189.024 72.7661 197.995 72.7661 209.06C72.7661 220.126 81.7418 229.097 92.8139 229.097Z" fill="#F9F9F9"/>
<path d="M117.262 226.507C126.903 226.507 134.718 218.696 134.718 209.06C134.718 199.425 126.903 191.614 117.262 191.614C107.621 191.614 99.8057 199.425 99.8057 209.06C99.8057 218.696 107.621 226.507 117.262 226.507Z" fill="#F9F9F9"/>
<path d="M148.41 226.262C157.916 226.262 165.622 218.561 165.622 209.06C165.622 199.56 157.916 191.859 148.41 191.859C138.904 191.859 131.198 199.56 131.198 209.06C131.198 218.561 138.904 226.262 148.41 226.262Z" fill="#F9F9F9"/>
<path d="M182.736 230.074C194.348 230.074 203.761 220.666 203.761 209.06C203.761 197.455 194.348 188.047 182.736 188.047C171.124 188.047 161.71 197.455 161.71 209.06C161.71 220.666 171.124 230.074 182.736 230.074Z" fill="#F9F9F9"/>
<path d="M107.19 238.821C113.968 238.821 119.463 233.33 119.463 226.555C119.463 219.781 113.968 214.289 107.19 214.289C100.411 214.289 94.9165 219.781 94.9165 226.555C94.9165 233.33 100.411 238.821 107.19 238.821Z" fill="#F9F9F9"/>
<path d="M132.42 242.242C141.251 242.242 148.41 235.088 148.41 226.262C148.41 217.437 141.251 210.282 132.42 210.282C123.59 210.282 116.431 217.437 116.431 226.262C116.431 235.088 123.59 242.242 132.42 242.242Z" fill="#F9F9F9"/>
<path d="M159.949 235.107C167.295 235.107 173.249 229.156 173.249 221.815C173.249 214.474 167.295 208.523 159.949 208.523C152.604 208.523 146.649 214.474 146.649 221.815C146.649 229.156 152.604 235.107 159.949 235.107Z" fill="#F9F9F9"/>
<path d="M178.726 235.694C186.395 235.694 192.612 229.48 192.612 221.815C192.612 214.15 186.395 207.936 178.726 207.936C171.056 207.936 164.839 214.15 164.839 221.815C164.839 229.48 171.056 235.694 178.726 235.694Z" fill="#F9F9F9"/>
<path d="M86.3105 243.22C93.5749 243.22 99.4638 237.334 99.4638 230.074C99.4638 222.814 93.5749 216.928 86.3105 216.928C79.0462 216.928 73.1572 222.814 73.1572 230.074C73.1572 237.334 79.0462 243.22 86.3105 243.22Z" fill="#F9F9F9"/>
<path d="M198.236 239.848C205.581 239.848 211.536 233.896 211.536 226.555C211.536 219.214 205.581 213.263 198.236 213.263C190.891 213.263 184.936 219.214 184.936 226.555C184.936 233.896 190.891 239.848 198.236 239.848Z" fill="#F9F9F9"/>
<path d="M69.8323 234.13C78.933 234.13 86.3106 226.757 86.3106 217.661C86.3106 208.566 78.933 201.193 69.8323 201.193C60.7316 201.193 53.354 208.566 53.354 217.661C53.354 226.757 60.7316 234.13 69.8323 234.13Z" fill="#F9F9F9"/>
<path d="M131.002 133.46C126.602 135.806 125.086 140.4 124.206 143.234C122.739 147.974 123.032 152.275 123.57 155.109C124.206 154.181 124.841 153.203 125.477 152.275C124.695 156.135 126.993 159.947 129.438 163.026C131.931 166.105 134.816 169.134 135.599 172.995C136.381 176.709 135.012 180.521 133.692 184.088C139.217 181.547 143.764 176.856 146.063 171.187C148.361 165.567 148.458 159.019 146.258 153.301C147.432 153.79 148.263 154.767 149.094 155.744C149.485 154.718 152.224 147.29 148.116 140.351C145.622 136.148 140.342 131.652 134.718 132.239C132.909 132.434 131.54 133.167 131.002 133.46Z" fill="url(#paint9_linear_121:2986)"/>
<path d="M134.572 140.253C132.86 141.182 132.274 142.941 131.931 144.016C131.345 145.873 131.491 147.535 131.687 148.61C131.931 148.219 132.176 147.877 132.42 147.486C132.127 149.001 133.007 150.467 133.936 151.64C134.865 152.812 135.99 153.985 136.332 155.5C136.626 156.917 136.088 158.432 135.599 159.801C137.75 158.823 139.51 157.015 140.391 154.816C141.271 152.617 141.32 150.125 140.488 147.926C140.928 148.121 141.271 148.512 141.564 148.854C141.711 148.463 142.787 145.58 141.173 142.892C140.195 141.279 138.19 139.52 135.99 139.764C135.305 139.862 134.767 140.155 134.572 140.253Z" fill="#F4D760"/>
<path d="M125.33 135.317L115.208 149.782L124.059 140.986L120.294 153.301L127.531 141.67L129.389 159.507L132.714 142.941L138.043 155.842L136.43 142.208L145.818 154.963L142.738 142.941L153.153 155.305L146.552 142.11L157.26 151.737L148.605 139.667L161.269 148.414L144.498 132.923L125.33 135.317Z" fill="url(#paint10_linear_121:2986)"/>
<path d="M104.304 137.272L107.629 135.366L109.83 120.07L106.505 122.025L104.304 137.272Z" fill="#06184C"/>
<path d="M113.888 95.7826L96.2363 108.586L104.304 137.272L106.505 122.025L125.672 123.247L113.888 95.7826Z" fill="url(#paint11_linear_121:2986)"/>
<path d="M168.262 137.272L164.937 135.366L162.688 120.07L166.061 122.025L168.262 137.272Z" fill="#06184C"/>
<path d="M158.677 95.7826L176.329 108.586L168.261 137.272L166.061 122.025L146.844 123.247L158.677 95.7826Z" fill="url(#paint12_linear_121:2986)"/>
<path fill-rule="evenodd" clip-rule="evenodd" d="M123.081 136.344C121.712 131.701 120.685 127.596 119.316 123.002L150.708 123.638C151.49 122.758 153.25 123.784 153.495 122.807C152.321 127.352 151.295 131.652 149.877 136.197C149.534 137.81 148.312 139.373 146.16 140.693C143.178 142.501 139.559 143.039 136.283 142.941C131.296 142.794 124.939 141.719 123.081 136.344Z" fill="#323439"/>
<path fill-rule="evenodd" clip-rule="evenodd" d="M143.814 123.491L150.708 123.638C151.49 122.758 153.251 123.784 153.495 122.807C152.322 127.352 151.295 131.652 149.877 136.197C149.535 137.81 148.312 139.373 146.161 140.693C143.276 142.452 139.608 143.087 136.283 142.941C131.443 142.794 125.331 141.768 123.277 136.832C126.357 141.475 136.088 141.67 139.462 140.497C141.026 134.78 142.493 129.111 143.814 123.491Z" fill="#1B1C1E"/>
<path fill-rule="evenodd" clip-rule="evenodd" d="M123.961 114.304C130.611 110.297 141.613 110.15 148.458 114.011C155.353 117.822 155.499 124.175 148.849 128.183C142.199 132.19 131.198 132.336 124.352 128.476C117.457 124.664 117.311 118.311 123.961 114.304Z" fill="#1B1C1E"/>
<path d="M149.974 27.8551H138.728H122.396C114.866 46.7184 108.51 77.2125 117.115 119.679H117.213C117.213 119.826 117.262 119.973 117.262 120.07C117.262 120.119 117.262 120.168 117.262 120.168C117.262 120.315 117.311 120.412 117.311 120.559C117.311 120.608 117.311 120.657 117.36 120.706C117.409 120.852 117.458 120.999 117.458 121.145C117.458 121.194 117.458 121.243 117.507 121.243C117.604 121.585 117.751 121.927 117.898 122.269V122.318C117.996 122.514 118.093 122.66 118.191 122.856C119.12 124.42 120.636 125.886 122.787 127.156C122.787 127.156 122.836 127.156 122.836 127.205C130.366 131.554 142.493 131.554 149.925 127.205C153.495 125.104 155.353 122.416 155.5 119.679C155.5 119.63 155.5 119.63 155.5 119.582C155.5 119.533 155.5 119.435 155.5 119.386C161.22 91.0423 162.932 56.9808 149.974 27.8551Z" fill="url(#paint13_linear_121:2986)"/>
<path d="M135.109 111.958V124.762V131.359V137.712V151.542H139.999V137.712V131.359V124.762V111.958H135.109Z" fill="url(#paint14_linear_121:2986)"/>
<path d="M121.956 50.0904C121.418 49.846 120.343 49.4551 119.169 49.4062C118.778 49.4062 118.338 49.3573 117.751 49.5039C117.262 49.6017 116.822 49.7971 116.822 49.7971C116.822 49.7971 116.969 49.7483 117.067 49.6994C116.431 50.0904 115.795 50.4813 115.16 50.8723C115.257 50.8723 128.02 72.1301 127.824 72.2279L129.975 70.9573C130.171 70.8595 130.318 70.7129 130.464 70.6152C130.513 70.5663 130.513 70.5663 130.562 70.5175C130.66 70.4686 131.198 69.931 131.687 69.1491C132.42 67.9763 132.225 66.0215 132.225 66.0215C131.736 59.3265 127.873 54.7817 127.873 54.7817C126.846 53.56 124.939 51.6542 121.956 50.0904Z" fill="#95ADBC"/>
<path d="M122.103 52.2406C120.979 51.7031 119.023 50.7746 117.458 51.6053C115.649 52.5338 115.307 55.1727 115.307 56.2967C115.307 60.9392 118.583 66.608 122.641 68.9537C124.695 70.1266 126.553 70.2243 127.873 69.4424C129.878 68.2695 130.025 65.3374 130.025 64.751C130.025 63.627 129.78 62.6008 129.047 60.9881C127.482 57.665 125.819 54.0976 122.103 52.2406Z" fill="#48DDFF"/>
<path d="M119.267 51.703C119.267 51.703 115.942 57.665 120.783 63.627C125.624 69.589 128.509 69.4424 128.509 69.4424C128.509 69.4424 128.411 70.9573 125.184 69.931C121.956 68.9537 116.187 63.8225 115.6 60.255C115.013 56.6876 116.529 52.1917 116.529 52.1917L117.507 51.1655L119.267 51.703Z" fill="#37C6DD"/>
<path d="M128.557 69.1004C128.459 69.1492 128.362 69.1981 128.264 69.247C128.215 69.247 128.166 69.2958 128.117 69.2958C128.068 69.2958 128.019 69.3447 127.971 69.3447C127.922 69.3447 127.824 69.3936 127.775 69.3936H127.726C127.628 69.3936 127.53 69.4424 127.433 69.4424H127.384C127.286 69.4424 127.237 69.4424 127.139 69.4424C127.139 69.4424 127.139 69.4424 127.09 69.4424C126.993 69.4424 126.895 69.4424 126.797 69.4424H126.748C126.65 69.4424 126.552 69.4424 126.455 69.4424H126.406C126.308 69.4424 126.21 69.4424 126.112 69.3936C126.112 69.3936 126.112 69.3936 126.064 69.3936C125.966 69.3936 125.868 69.3447 125.77 69.3447C125.672 69.3447 125.526 69.2958 125.428 69.247C125.33 69.1981 125.232 69.1981 125.086 69.1492C125.086 69.1492 125.086 69.1492 125.037 69.1492C124.939 69.1003 124.792 69.0515 124.694 69.0026C124.597 68.9537 124.45 68.9049 124.352 68.856C124.352 68.856 124.352 68.856 124.303 68.856C124.205 68.8071 124.059 68.7583 123.961 68.6605C123.814 68.6117 123.716 68.5139 123.57 68.4651C123.423 68.4162 123.325 68.3185 123.179 68.2207C123.081 68.123 122.934 68.0741 122.836 67.9764C122.836 67.9764 122.836 67.9764 122.787 67.9764C122.69 67.8786 122.592 67.8298 122.445 67.732C122.445 67.732 122.445 67.732 122.396 67.732C122.298 67.6343 122.152 67.5854 122.054 67.4877C121.956 67.3899 121.809 67.2922 121.712 67.1945C121.614 67.0967 121.516 66.999 121.369 66.9013C121.369 66.9013 121.369 66.9013 121.32 66.8524C121.223 66.7547 121.125 66.6569 121.027 66.5592C121.027 66.5592 121.027 66.5592 120.978 66.5103C120.88 66.4126 120.783 66.3148 120.685 66.2171C120.685 66.2171 120.685 66.2171 120.636 66.1682C120.538 66.0705 120.44 65.9728 120.343 65.8262C120.245 65.7284 120.147 65.5818 120.049 65.4841C119.951 65.3863 119.854 65.2397 119.756 65.142C119.756 65.142 119.756 65.0931 119.707 65.0931C119.609 64.9954 119.511 64.8488 119.413 64.751C119.365 64.6533 119.267 64.5556 119.218 64.4578C119.169 64.409 119.12 64.3112 119.071 64.2135C119.022 64.1646 119.022 64.1157 118.973 64.0669C118.827 63.8225 118.631 63.5782 118.484 63.285C118.484 63.2361 118.436 63.1872 118.436 63.1872C118.387 63.1384 118.387 63.0895 118.338 63.0406C118.289 62.9429 118.24 62.8452 118.191 62.7474C118.191 62.6986 118.142 62.6986 118.142 62.6497C118.093 62.5031 117.995 62.4053 117.947 62.2587V62.2099C117.898 62.0633 117.8 61.9655 117.751 61.8189C117.702 61.6723 117.604 61.5257 117.555 61.3791C117.555 61.3791 117.555 61.3791 117.555 61.3302C117.507 61.1836 117.458 61.037 117.36 60.8904C117.311 60.7438 117.262 60.5972 117.213 60.4506C117.213 60.4506 117.213 60.4506 117.213 60.4017C117.164 60.2551 117.115 60.1085 117.066 59.9619C117.018 59.8153 116.969 59.6687 116.92 59.5221C116.92 59.5221 116.92 59.5221 116.92 59.4732C116.871 59.3266 116.822 59.18 116.822 59.0823C116.822 59.0823 116.822 59.0823 116.822 59.0334C116.773 58.8868 116.724 58.7402 116.724 58.5936C116.675 58.447 116.675 58.3004 116.626 58.1538V58.1049C116.577 57.9583 116.577 57.8117 116.529 57.6651C116.529 57.5185 116.48 57.3719 116.48 57.2253C116.48 57.2253 116.48 57.2253 116.48 57.1764C116.48 57.0298 116.431 56.8832 116.431 56.7854C116.431 56.6388 116.431 56.4922 116.382 56.3456C116.382 56.3456 116.382 56.3456 116.382 56.2968C116.382 56.1502 116.382 56.0035 116.382 55.9058C116.382 55.7592 116.382 55.6126 116.382 55.5149C116.382 55.5149 116.382 55.5149 116.382 55.466C116.382 55.3194 116.382 55.2216 116.431 55.1239C116.431 55.1239 116.431 55.1239 116.431 55.075C116.431 54.9284 116.48 54.8307 116.48 54.733C116.48 54.5864 116.529 54.4886 116.529 54.3909C116.577 54.1465 116.626 53.9511 116.675 53.7067V53.6579C116.724 53.5601 116.724 53.4624 116.773 53.3646C116.773 53.3646 116.773 53.3158 116.822 53.3158C116.871 53.218 116.871 53.1692 116.92 53.0714V53.0226C116.969 52.9248 117.018 52.8271 117.066 52.7782C117.066 52.7293 117.115 52.7293 117.115 52.6805C117.164 52.6316 117.164 52.5827 117.213 52.485C117.262 52.3873 117.36 52.2895 117.409 52.1918L117.458 52.1429C117.507 52.0941 117.555 51.9963 117.604 51.9474C117.653 51.8986 117.653 51.8986 117.702 51.8497C117.751 51.8008 117.8 51.752 117.849 51.7031C117.898 51.6542 117.898 51.6542 117.947 51.6054C117.995 51.5565 118.044 51.5076 118.142 51.4588C118.191 51.4588 118.191 51.4099 118.24 51.4099C118.338 51.361 118.436 51.3122 118.484 51.2144L116.333 52.485C116.235 52.5339 116.137 52.5827 116.088 52.6805C116.04 52.6805 116.04 52.7293 115.991 52.7293C115.942 52.7782 115.893 52.8271 115.795 52.876C115.746 52.9248 115.746 52.9248 115.697 52.9737C115.648 53.0226 115.6 53.0714 115.551 53.1203C115.502 53.1692 115.502 53.1692 115.453 53.218C115.404 53.2669 115.355 53.3158 115.306 53.4135L115.257 53.4624C115.208 53.5601 115.111 53.6578 115.062 53.7556C115.013 53.8045 115.013 53.8533 114.964 53.9022C114.964 53.9511 114.915 53.9511 114.915 53.9999C114.866 54.0977 114.817 54.1465 114.768 54.2443V54.2931C114.768 54.342 114.719 54.3909 114.719 54.4398C114.719 54.4886 114.719 54.4886 114.67 54.5375C114.67 54.5375 114.67 54.5864 114.622 54.5864V54.6352C114.622 54.6841 114.573 54.7818 114.573 54.8307C114.573 54.8307 114.573 54.8307 114.573 54.8796V54.9284C114.573 54.9773 114.524 55.0262 114.524 55.0262C114.524 55.075 114.475 55.1728 114.475 55.2216C114.475 55.2705 114.426 55.3194 114.426 55.4171C114.426 55.466 114.377 55.5149 114.377 55.6126C114.377 55.6615 114.377 55.7103 114.328 55.8081C114.328 55.8569 114.328 55.9058 114.279 56.0035C114.279 56.0524 114.279 56.1013 114.279 56.1502C114.279 56.199 114.279 56.2479 114.279 56.3456V56.3945V56.4434C114.279 56.4922 114.279 56.4922 114.279 56.5411C114.279 56.59 114.279 56.6388 114.279 56.6877C114.279 56.7366 114.279 56.7366 114.279 56.7854C114.279 56.7854 114.279 56.7854 114.279 56.8343V56.8832C114.279 56.9321 114.279 56.9809 114.279 57.0787C114.279 57.1275 114.279 57.1764 114.279 57.2741C114.279 57.323 114.279 57.3719 114.279 57.4207C114.279 57.4696 114.279 57.5185 114.279 57.6162C114.279 57.6651 114.279 57.6651 114.279 57.714C114.279 57.714 114.279 57.714 114.279 57.7628V57.8117C114.279 57.8606 114.279 57.9094 114.279 58.0072C114.279 58.056 114.279 58.1049 114.279 58.2026C114.279 58.2515 114.279 58.3004 114.279 58.3492C114.279 58.3981 114.279 58.447 114.279 58.5447C114.279 58.5936 114.279 58.5936 114.279 58.6425C114.279 58.6425 114.279 58.6425 114.279 58.6913V58.7402C114.279 58.7891 114.279 58.8379 114.279 58.9357C114.279 58.9845 114.279 59.0334 114.328 59.1311C114.328 59.18 114.328 59.2289 114.377 59.2777C114.377 59.3266 114.377 59.3755 114.426 59.4732C114.426 59.5221 114.426 59.5221 114.426 59.571V59.6198V59.6687C114.426 59.7176 114.475 59.8153 114.475 59.8642C114.475 59.913 114.524 59.9619 114.524 60.0108C114.524 60.0596 114.573 60.1574 114.573 60.2063C114.573 60.2551 114.622 60.3529 114.622 60.4017V60.4506C114.622 60.4506 114.622 60.4506 114.622 60.4995C114.622 60.5483 114.622 60.5972 114.67 60.5972C114.67 60.6461 114.719 60.7438 114.719 60.7927C114.719 60.8415 114.719 60.8415 114.768 60.8904V60.9393V60.9882C114.768 61.037 114.817 61.1348 114.817 61.1836C114.817 61.2325 114.866 61.3302 114.866 61.3791C114.866 61.428 114.915 61.4768 114.915 61.5257C114.915 61.5746 114.964 61.6234 114.964 61.7212C114.964 61.7701 114.964 61.77 115.013 61.8189C115.013 61.8189 115.013 61.8189 115.013 61.8678V61.9167C115.013 61.9655 115.062 62.0144 115.062 62.1121C115.062 62.161 115.111 62.2099 115.111 62.3076C115.111 62.3565 115.159 62.4053 115.159 62.4542C115.159 62.5031 115.208 62.552 115.208 62.6497C115.208 62.6986 115.257 62.6986 115.257 62.7474C115.257 62.7474 115.257 62.7474 115.257 62.7963V62.8452C115.306 62.894 115.306 62.9429 115.355 63.0406C115.404 63.0895 115.404 63.1384 115.453 63.2361C115.453 63.285 115.502 63.3339 115.502 63.3827C115.551 63.4316 115.551 63.5293 115.6 63.5782C115.6 63.5782 115.6 63.6271 115.648 63.6271V63.6759C115.648 63.7248 115.697 63.7248 115.697 63.7737C115.746 63.8714 115.795 63.9203 115.844 64.018C115.844 64.018 115.844 64.0669 115.893 64.0669C115.893 64.1157 115.942 64.1157 115.942 64.1646C115.991 64.2135 115.991 64.2624 116.04 64.3112C116.088 64.3601 116.088 64.409 116.137 64.4578C116.186 64.5067 116.186 64.5556 116.235 64.6044L116.284 64.6533C116.284 64.6533 116.284 64.7022 116.333 64.7022C116.48 64.9465 116.626 65.2397 116.822 65.4841C116.822 65.4841 116.822 65.5329 116.871 65.5329C116.92 65.5818 116.92 65.6307 116.969 65.6307C117.018 65.7284 117.066 65.7773 117.115 65.8262C117.115 65.875 117.164 65.875 117.164 65.9239C117.213 65.9728 117.262 66.0705 117.311 66.1194C117.36 66.2171 117.409 66.266 117.507 66.3637C117.555 66.4126 117.555 66.4614 117.604 66.5103C117.604 66.5103 117.604 66.5103 117.653 66.5592C117.653 66.5592 117.653 66.5592 117.653 66.608C117.702 66.6569 117.751 66.7058 117.8 66.8035C117.849 66.8524 117.898 66.9013 117.947 66.9501C117.995 66.999 118.044 67.0479 118.093 67.0967C118.142 67.1456 118.191 67.1945 118.24 67.2433C118.289 67.2922 118.289 67.3411 118.338 67.3411C118.387 67.3899 118.436 67.4388 118.484 67.4877L118.533 67.5366C118.533 67.5366 118.533 67.5366 118.582 67.5854L118.631 67.6343C118.68 67.6832 118.729 67.732 118.778 67.7809C118.827 67.8298 118.827 67.8298 118.876 67.8786C118.876 67.8786 118.876 67.8786 118.925 67.9275L118.973 67.9764C119.022 68.0252 119.071 68.0741 119.12 68.123C119.169 68.1719 119.169 68.1718 119.218 68.2207C119.218 68.2207 119.218 68.2207 119.267 68.2696C119.316 68.3185 119.365 68.3673 119.413 68.4162C119.462 68.4651 119.511 68.5139 119.56 68.5628C119.609 68.6117 119.658 68.6605 119.707 68.7094C119.756 68.7583 119.805 68.8071 119.854 68.856C119.902 68.9049 119.951 68.9049 120 68.9537C120.049 69.0026 120.098 69.0515 120.147 69.1004C120.147 69.1004 120.196 69.1003 120.196 69.1492C120.196 69.1492 120.196 69.1492 120.245 69.1492C120.294 69.1492 120.294 69.1981 120.343 69.1981C120.391 69.247 120.44 69.2958 120.489 69.2958C120.538 69.2958 120.538 69.3447 120.587 69.3447C120.587 69.3447 120.587 69.3447 120.636 69.3447C120.636 69.3447 120.685 69.3447 120.685 69.3936C120.734 69.4424 120.783 69.4424 120.832 69.4913C120.88 69.5402 120.929 69.5402 120.978 69.589C121.027 69.6379 121.076 69.6379 121.125 69.6868C121.174 69.7356 121.223 69.7356 121.272 69.7845L121.32 69.8334C121.369 69.8334 121.369 69.8822 121.418 69.8822C121.467 69.9311 121.516 69.9311 121.565 69.98C121.614 70.0289 121.663 70.0289 121.712 70.0777C121.761 70.1266 121.809 70.1266 121.858 70.1755C121.907 70.1755 121.956 70.2243 122.005 70.2243C122.005 70.2243 122.054 70.2243 122.054 70.2732C122.054 70.2732 122.054 70.2732 122.103 70.2732C122.103 70.2732 122.152 70.2732 122.152 70.3221C122.201 70.3221 122.25 70.3709 122.298 70.3709C122.347 70.3709 122.396 70.4198 122.445 70.4198C122.494 70.4198 122.543 70.4687 122.592 70.4687C122.641 70.4687 122.69 70.5175 122.739 70.5175H122.787C122.787 70.5175 122.787 70.5175 122.836 70.5175H122.885C122.934 70.5175 122.983 70.5664 123.032 70.5664C123.081 70.5664 123.13 70.5664 123.179 70.6153C123.227 70.6153 123.276 70.6642 123.325 70.6642C123.374 70.6642 123.423 70.6642 123.472 70.713C123.521 70.713 123.521 70.713 123.57 70.713C123.619 70.713 123.668 70.713 123.716 70.7619H123.765C123.765 70.7619 123.765 70.7619 123.814 70.7619C123.863 70.7619 123.863 70.7619 123.912 70.7619C123.961 70.7619 124.01 70.7619 124.059 70.7619H124.108H124.157H124.205C124.254 70.7619 124.303 70.7619 124.352 70.7619H124.401H124.45C124.499 70.7619 124.499 70.7619 124.548 70.7619C124.597 70.7619 124.694 70.7619 124.743 70.7619C124.743 70.7619 124.743 70.7619 124.792 70.7619C124.841 70.7619 124.89 70.7619 124.939 70.7619C124.988 70.7619 124.988 70.7619 125.037 70.7619H125.086C125.086 70.7619 125.086 70.7619 125.134 70.7619C125.232 70.7619 125.281 70.7619 125.379 70.713H125.428C125.477 70.713 125.526 70.6642 125.575 70.6642H125.623C125.672 70.6642 125.721 70.6153 125.77 70.6153C125.819 70.6153 125.819 70.6153 125.868 70.5664C125.868 70.5664 125.868 70.5664 125.917 70.5664C126.015 70.5175 126.112 70.4687 126.21 70.4198C126.308 70.3709 126.357 70.3221 126.455 70.2732L128.606 69.0026C128.753 69.0026 128.655 69.0515 128.557 69.1004Z" fill="#95ADBC"/>
<path d="M121.565 51.2633C116.675 48.4289 112.714 50.7257 112.714 56.3456C112.714 61.9655 116.675 68.8071 121.516 71.5926C126.406 74.427 130.366 72.1302 130.415 66.5592C130.415 60.9393 126.454 54.0977 121.565 51.2633ZM121.516 69.7356C117.555 67.4388 114.328 61.8678 114.328 57.2741C114.328 52.6805 117.604 50.8723 121.565 53.1692C125.525 55.466 128.753 61.037 128.753 65.6307C128.753 70.1754 125.525 72.0325 121.516 69.7356Z" fill="#EDF6FF"/>
<path d="M123.641 60.5238C124.713 59.9528 124.739 57.9065 123.698 55.9532C122.657 53.9999 120.943 52.8793 119.871 53.4502C118.798 54.0212 118.773 56.0675 119.814 58.0208C120.855 59.9741 122.568 61.0947 123.641 60.5238Z" fill="#B8F5FF"/>
<path d="M125.281 63.5781C125.956 63.5781 126.503 63.0312 126.503 62.3564C126.503 61.6817 125.956 61.1347 125.281 61.1347C124.606 61.1347 124.059 61.6817 124.059 62.3564C124.059 63.0312 124.606 63.5781 125.281 63.5781Z" fill="#B8F5FF"/>
<path d="M121.956 75.7464C121.418 75.5021 120.343 75.1111 119.169 75.0623C118.778 75.0623 118.338 75.0134 117.751 75.16C117.262 75.2577 116.822 75.4532 116.822 75.4532C116.822 75.4532 116.969 75.4043 117.067 75.3555C116.431 75.7464 115.795 76.1374 115.16 76.5283C115.257 76.5283 128.02 97.7862 127.824 97.8839L129.975 96.6133C130.171 96.5156 130.318 96.369 130.464 96.2713C130.513 96.2224 130.513 96.2224 130.562 96.1735C130.66 96.1247 131.198 95.5871 131.687 94.8052C132.42 93.6324 132.225 91.6776 132.225 91.6776C131.736 84.9826 127.873 80.4378 127.873 80.4378C126.846 79.1672 124.939 77.2613 121.956 75.7464Z" fill="#95ADBC"/>
<path d="M122.103 77.8967C120.979 77.3591 119.023 76.4306 117.458 77.2614C115.649 78.1899 115.307 80.8288 115.307 81.9528C115.307 86.5953 118.583 92.2641 122.641 94.6098C124.695 95.7826 126.553 95.8804 127.873 95.0985C129.878 93.9256 130.025 90.9935 130.025 90.4071C130.025 89.2831 129.78 88.2568 129.047 86.6442C127.482 83.3211 125.819 79.7048 122.103 77.8967Z" fill="#48DDFF"/>
<path d="M119.267 77.3103C119.267 77.3103 115.942 83.2722 120.783 89.2342C125.624 95.1962 128.509 95.0496 128.509 95.0496C128.509 95.0496 128.411 96.5645 125.184 95.5383C121.956 94.5609 116.187 89.4297 115.6 85.8623C115.013 82.2949 116.529 77.7989 116.529 77.7989L117.507 76.7727L119.267 77.3103Z" fill="#37C6DD"/>
<path d="M128.557 94.7075C128.459 94.7563 128.362 94.8052 128.264 94.8541C128.215 94.8541 128.166 94.9029 128.117 94.9029C128.068 94.9029 128.019 94.9518 127.971 94.9518C127.922 94.9518 127.824 95.0007 127.775 95.0007H127.726C127.628 95.0007 127.53 95.0495 127.433 95.0495H127.384C127.286 95.0495 127.237 95.0495 127.139 95.0495C127.139 95.0495 127.139 95.0495 127.09 95.0495C126.993 95.0495 126.895 95.0495 126.797 95.0495H126.748C126.65 95.0495 126.552 95.0495 126.455 95.0495H126.406C126.308 95.0495 126.21 95.0495 126.112 95.0007C126.112 95.0007 126.112 95.0007 126.064 95.0007C125.966 95.0007 125.868 94.9518 125.77 94.9518C125.672 94.9518 125.526 94.9029 125.428 94.8541C125.33 94.8052 125.232 94.8052 125.086 94.7563C125.086 94.7563 125.086 94.7563 125.037 94.7563C124.939 94.7075 124.792 94.6586 124.694 94.6097C124.597 94.5609 124.45 94.512 124.352 94.4631C124.352 94.4631 124.352 94.4631 124.303 94.4631C124.205 94.4142 124.059 94.3654 123.961 94.2676C123.814 94.2188 123.716 94.121 123.57 94.0722C123.423 94.0233 123.325 93.9256 123.179 93.8278C123.081 93.7301 122.934 93.6812 122.836 93.5835C122.836 93.5835 122.836 93.5835 122.787 93.5835C122.69 93.4857 122.592 93.4369 122.445 93.3391C122.445 93.3391 122.445 93.3391 122.396 93.3391C122.298 93.2414 122.152 93.1925 122.054 93.0948C121.956 92.9971 121.809 92.8993 121.712 92.8016C121.614 92.7038 121.516 92.6061 121.369 92.5084C121.369 92.5084 121.369 92.5084 121.32 92.4595C121.223 92.3618 121.125 92.264 121.027 92.1663C121.027 92.1663 121.027 92.1663 120.978 92.1174C120.88 92.0197 120.783 91.9219 120.685 91.8242C120.685 91.8242 120.685 91.8242 120.636 91.7753C120.538 91.6776 120.44 91.5799 120.343 91.4333C120.245 91.3355 120.147 91.1889 120.049 91.0912C119.951 90.9934 119.854 90.8468 119.756 90.7491C119.756 90.7491 119.756 90.7002 119.707 90.7002C119.609 90.6025 119.511 90.4559 119.413 90.3581C119.365 90.2604 119.267 90.1627 119.218 90.0649C119.169 90.0161 119.12 89.9183 119.071 89.8206C119.022 89.7717 119.022 89.7229 118.973 89.674C118.827 89.4296 118.631 89.1853 118.484 88.8921C118.484 88.8432 118.436 88.7944 118.436 88.7944C118.387 88.7455 118.387 88.6966 118.338 88.6477C118.289 88.55 118.24 88.4523 118.191 88.3545C118.191 88.3057 118.142 88.3057 118.142 88.2568C118.093 88.1102 117.995 88.0125 117.947 87.8658V87.817C117.898 87.6704 117.8 87.5726 117.751 87.426C117.702 87.2794 117.604 87.1328 117.555 86.9862C117.555 86.9862 117.555 86.9862 117.555 86.9373C117.507 86.7907 117.458 86.6441 117.36 86.4975C117.311 86.3509 117.262 86.2043 117.213 86.0577C117.213 86.0577 117.213 86.0577 117.213 86.0088C117.164 85.8622 117.115 85.7156 117.066 85.569C117.018 85.4224 116.969 85.2758 116.92 85.1292C116.92 85.1292 116.92 85.1292 116.92 85.0803C116.871 84.9337 116.822 84.7871 116.822 84.6894C116.822 84.6894 116.822 84.6894 116.822 84.6405C116.773 84.4939 116.724 84.3473 116.724 84.2007C116.675 84.0541 116.675 83.9075 116.626 83.7609V83.712C116.577 83.5654 116.577 83.4188 116.529 83.2722C116.529 83.1256 116.48 82.979 116.48 82.8324C116.48 82.8324 116.48 82.8324 116.48 82.7835C116.48 82.6369 116.431 82.4903 116.431 82.3926C116.431 82.246 116.431 82.0993 116.382 81.9527C116.382 81.9527 116.382 81.9527 116.382 81.9039C116.382 81.7573 116.382 81.6107 116.382 81.5129C116.382 81.3663 116.382 81.2197 116.382 81.122C116.382 81.122 116.382 81.122 116.382 81.0731C116.382 80.9265 116.382 80.8288 116.431 80.731C116.431 80.731 116.431 80.731 116.431 80.6822C116.431 80.5355 116.48 80.4378 116.48 80.3401C116.48 80.1935 116.529 80.0957 116.529 79.998C116.577 79.7537 116.626 79.5582 116.675 79.3138V79.265C116.724 79.1672 116.724 79.0695 116.773 78.9718C116.773 78.9718 116.773 78.9229 116.822 78.9229C116.871 78.8251 116.871 78.7763 116.92 78.6785V78.6297C116.969 78.5319 117.018 78.4342 117.066 78.3853C117.066 78.3365 117.115 78.3365 117.115 78.2876C117.164 78.2387 117.164 78.1899 117.213 78.0921C117.262 77.9944 117.36 77.8966 117.409 77.7989L117.458 77.75C117.507 77.7012 117.555 77.6034 117.604 77.5546C117.653 77.5057 117.653 77.5057 117.702 77.4568C117.751 77.408 117.8 77.3591 117.849 77.3102C117.898 77.2614 117.898 77.2613 117.947 77.2125C117.995 77.1636 118.044 77.1147 118.142 77.0659C118.191 77.0659 118.191 77.017 118.24 77.017C118.338 76.9681 118.436 76.9193 118.484 76.8215L116.333 78.0921C116.235 78.141 116.137 78.1899 116.088 78.2876C116.04 78.2876 116.04 78.3365 115.991 78.3365C115.942 78.3853 115.893 78.4342 115.795 78.4831C115.746 78.5319 115.746 78.5319 115.697 78.5808C115.648 78.6297 115.6 78.6785 115.551 78.7274C115.502 78.7763 115.502 78.7763 115.453 78.8251C115.404 78.874 115.355 78.9229 115.306 79.0206L115.257 79.0695C115.208 79.1672 115.111 79.265 115.062 79.3627C115.013 79.4116 115.013 79.4604 114.964 79.5093C114.964 79.5582 114.915 79.5582 114.915 79.607C114.866 79.7048 114.817 79.7537 114.768 79.8514V79.9003C114.768 79.9491 114.719 79.998 114.719 80.0469C114.719 80.0957 114.719 80.0957 114.67 80.1446C114.67 80.1446 114.67 80.1935 114.622 80.1935V80.2423C114.622 80.2912 114.573 80.3889 114.573 80.4378C114.573 80.4378 114.573 80.4378 114.573 80.4867V80.5355C114.573 80.5844 114.524 80.6333 114.524 80.6333C114.524 80.6822 114.475 80.7799 114.475 80.8288C114.475 80.8776 114.426 80.9265 114.426 81.0242C114.426 81.0731 114.377 81.122 114.377 81.2197C114.377 81.2686 114.377 81.3174 114.328 81.4152C114.328 81.4641 114.328 81.5129 114.279 81.6107C114.279 81.6595 114.279 81.7084 114.279 81.7573C114.279 81.8061 114.279 81.855 114.279 81.9527V82.0016V82.0505C114.279 82.0993 114.279 82.0993 114.279 82.1482C114.279 82.1971 114.279 82.246 114.279 82.2948C114.279 82.3437 114.279 82.3437 114.279 82.3926C114.279 82.3926 114.279 82.3926 114.279 82.4414V82.4903C114.279 82.5392 114.279 82.588 114.279 82.6858C114.279 82.7346 114.279 82.7835 114.279 82.8812C114.279 82.9301 114.279 82.979 114.279 83.0279C114.279 83.0767 114.279 83.1256 114.279 83.2233C114.279 83.2722 114.279 83.2722 114.279 83.3211C114.279 83.3211 114.279 83.3211 114.279 83.3699V83.4188C114.279 83.4677 114.279 83.5165 114.279 83.6143C114.279 83.6631 114.279 83.712 114.279 83.8097C114.279 83.8586 114.279 83.9075 114.279 83.9564C114.279 84.0052 114.279 84.0541 114.279 84.1518C114.279 84.2007 114.279 84.2007 114.279 84.2496C114.279 84.2496 114.279 84.2496 114.279 84.2984V84.3473C114.279 84.3962 114.279 84.445 114.279 84.5428C114.279 84.5916 114.279 84.6405 114.328 84.7383C114.328 84.7871 114.328 84.836 114.377 84.8849C114.377 84.9337 114.377 84.9826 114.426 85.0803C114.426 85.1292 114.426 85.1292 114.426 85.1781V85.2269V85.2758C114.426 85.3247 114.475 85.4224 114.475 85.4713C114.475 85.5202 114.524 85.569 114.524 85.6179C114.524 85.6668 114.573 85.7645 114.573 85.8134C114.573 85.8622 114.622 85.96 114.622 86.0088V86.0577C114.622 86.0577 114.622 86.0577 114.622 86.1066C114.622 86.1554 114.622 86.2043 114.67 86.2043C114.67 86.2532 114.719 86.3509 114.719 86.3998C114.719 86.4487 114.719 86.4487 114.768 86.4975V86.5464V86.5953C114.768 86.6441 114.817 86.7419 114.817 86.7907C114.817 86.8396 114.866 86.9373 114.866 86.9862C114.866 87.0351 114.915 87.0839 114.915 87.1328C114.915 87.1817 114.964 87.2306 114.964 87.3283C114.964 87.3772 114.964 87.3772 115.013 87.426C115.013 87.426 115.013 87.426 115.013 87.4749V87.5238C115.013 87.5726 115.062 87.6215 115.062 87.7192C115.062 87.7681 115.111 87.817 115.111 87.9147C115.111 87.9636 115.159 88.0125 115.159 88.0613C115.159 88.1102 115.208 88.1591 115.208 88.2568C115.208 88.3057 115.257 88.3057 115.257 88.3545C115.257 88.3545 115.257 88.3545 115.257 88.4034V88.4523C115.306 88.5011 115.306 88.55 115.355 88.6477C115.404 88.6966 115.404 88.7455 115.453 88.8432C115.453 88.8921 115.502 88.941 115.502 88.9898C115.551 89.0387 115.551 89.1364 115.6 89.1853C115.6 89.1853 115.6 89.2342 115.648 89.2342V89.283C115.648 89.3319 115.697 89.3319 115.697 89.3808C115.746 89.4785 115.795 89.5274 115.844 89.6251C115.844 89.6251 115.844 89.674 115.893 89.674C115.893 89.7229 115.942 89.7229 115.942 89.7717C115.991 89.8206 115.991 89.8695 116.04 89.9183C116.088 89.9672 116.088 90.0161 116.137 90.0649C116.186 90.1138 116.186 90.1627 116.235 90.2115L116.284 90.2604C116.284 90.2604 116.284 90.3093 116.333 90.3093C116.48 90.5536 116.626 90.8468 116.822 91.0912C116.822 91.0912 116.822 91.14 116.871 91.14C116.92 91.1889 116.92 91.2378 116.969 91.2378C117.018 91.3355 117.066 91.3844 117.115 91.4333C117.115 91.4821 117.164 91.4821 117.164 91.531C117.213 91.5799 117.262 91.6776 117.311 91.7265C117.36 91.8242 117.409 91.8731 117.507 91.9708C117.555 92.0197 117.555 92.0685 117.604 92.1174C117.604 92.1174 117.604 92.1174 117.653 92.1663C117.653 92.1663 117.653 92.1663 117.653 92.2152C117.702 92.264 117.751 92.3129 117.8 92.4106C117.849 92.4595 117.898 92.5084 117.947 92.5572C117.995 92.6061 118.044 92.655 118.093 92.7038C118.142 92.7527 118.191 92.8016 118.24 92.8504C118.289 92.8993 118.289 92.9482 118.338 92.9482C118.387 92.9971 118.436 93.0459 118.484 93.0948L118.533 93.1437C118.533 93.1437 118.533 93.1437 118.582 93.1925L118.631 93.2414C118.68 93.2903 118.729 93.3391 118.778 93.388C118.827 93.4369 118.827 93.4369 118.876 93.4857C118.876 93.4857 118.876 93.4857 118.925 93.5346L118.973 93.5835C119.022 93.6323 119.071 93.6812 119.12 93.7301C119.169 93.779 119.169 93.779 119.218 93.8278C119.218 93.8278 119.218 93.8278 119.267 93.8767C119.316 93.9256 119.365 93.9744 119.413 94.0233C119.462 94.0722 119.511 94.121 119.56 94.1699C119.609 94.2188 119.658 94.2676 119.707 94.3165C119.756 94.3654 119.805 94.4142 119.854 94.4631C119.902 94.512 119.951 94.512 120 94.5609C120.049 94.6097 120.098 94.6586 120.147 94.7075C120.147 94.7075 120.196 94.7075 120.196 94.7563C120.196 94.7563 120.196 94.7563 120.245 94.7563C120.294 94.7563 120.294 94.8052 120.343 94.8052C120.391 94.8541 120.44 94.9029 120.489 94.9029C120.538 94.9029 120.538 94.9518 120.587 94.9518C120.587 94.9518 120.587 94.9518 120.636 94.9518C120.636 94.9518 120.685 94.9518 120.685 95.0007C120.734 95.0495 120.783 95.0495 120.832 95.0984C120.88 95.1473 120.929 95.1473 120.978 95.1961C121.027 95.245 121.076 95.245 121.125 95.2939C121.174 95.3427 121.223 95.3428 121.272 95.3916L121.32 95.4405C121.369 95.4405 121.369 95.4894 121.418 95.4894C121.467 95.5382 121.516 95.5382 121.565 95.5871C121.614 95.636 121.663 95.636 121.712 95.6848C121.761 95.7337 121.809 95.7337 121.858 95.7826C121.907 95.7826 121.956 95.8314 122.005 95.8314C122.005 95.8314 122.054 95.8314 122.054 95.8803C122.054 95.8803 122.054 95.8803 122.103 95.8803C122.103 95.8803 122.152 95.8803 122.152 95.9292C122.201 95.9292 122.25 95.978 122.298 95.978C122.347 95.978 122.396 96.0269 122.445 96.0269C122.494 96.0269 122.543 96.0758 122.592 96.0758C122.641 96.0758 122.69 96.1247 122.739 96.1247H122.787C122.787 96.1247 122.787 96.1247 122.836 96.1247H122.885C122.934 96.1247 122.983 96.1735 123.032 96.1735C123.081 96.1735 123.13 96.1735 123.179 96.2224C123.227 96.2224 123.276 96.2713 123.325 96.2713C123.374 96.2713 123.423 96.2713 123.472 96.3201C123.521 96.3201 123.521 96.3201 123.57 96.3201C123.619 96.3201 123.668 96.3201 123.716 96.369H123.765C123.765 96.369 123.765 96.369 123.814 96.369C123.863 96.369 123.863 96.369 123.912 96.369C123.961 96.369 124.01 96.369 124.059 96.369H124.108H124.157H124.205C124.254 96.369 124.303 96.369 124.352 96.369H124.401H124.45C124.499 96.369 124.499 96.369 124.548 96.369C124.597 96.369 124.694 96.369 124.743 96.369C124.743 96.369 124.743 96.369 124.792 96.369C124.841 96.369 124.89 96.369 124.939 96.369C124.988 96.369 124.988 96.369 125.037 96.369H125.086C125.086 96.369 125.086 96.369 125.134 96.369C125.232 96.369 125.281 96.369 125.379 96.3201H125.428C125.477 96.3201 125.526 96.2713 125.575 96.2713H125.623C125.672 96.2713 125.721 96.2224 125.77 96.2224C125.819 96.2224 125.819 96.2224 125.868 96.1735C125.868 96.1735 125.868 96.1735 125.917 96.1735C126.015 96.1246 126.112 96.0758 126.21 96.0269C126.308 95.978 126.357 95.9292 126.455 95.8803L128.606 94.6097C128.753 94.6586 128.655 94.7075 128.557 94.7075Z" fill="#95ADBC"/>
<path d="M121.565 76.9193C116.675 74.085 112.714 76.3818 112.714 82.0017C112.714 87.6216 116.675 94.4632 121.516 97.2487C126.406 100.083 130.366 97.7863 130.415 92.2152C130.415 86.5465 126.454 79.7049 121.565 76.9193ZM121.516 95.3428C117.555 93.046 114.328 87.475 114.328 82.8813C114.328 78.2877 117.604 76.4795 121.565 78.7764C125.525 81.0732 128.753 86.6442 128.753 91.2379C128.753 95.7827 125.525 97.6397 121.516 95.3428Z" fill="#EDF6FF"/>
<path d="M123.651 86.1772C124.723 85.6062 124.749 83.5599 123.708 81.6066C122.667 79.6533 120.954 78.5326 119.881 79.1036C118.808 79.6745 118.783 81.7209 119.824 83.6742C120.865 85.6275 122.578 86.7481 123.651 86.1772Z" fill="#B8F5FF"/>
<path d="M125.281 89.1853C125.956 89.1853 126.503 88.6383 126.503 87.9636C126.503 87.2889 125.956 86.7419 125.281 86.7419C124.606 86.7419 124.059 87.2889 124.059 87.9636C124.059 88.6383 124.606 89.1853 125.281 89.1853Z" fill="#B8F5FF"/>
<path d="M150.023 31.2271C149.436 32.5954 147.138 35.4298 142.151 36.7004C140.488 37.1402 138.581 37.3357 136.283 37.3357C127.139 37.189 123.325 33.7682 122.25 29.8587C121.125 25.9493 132.518 4.83798 136.772 0.0977173C136.772 0.0977173 146.062 17.5438 148.067 22.0886C148.898 23.9945 149.534 25.5583 149.876 26.8778C149.925 27.0244 149.974 27.171 149.974 27.3176C150.072 27.7574 150.17 28.1483 150.219 28.4904C150.414 29.6144 150.365 30.494 150.023 31.2271Z" fill="url(#paint15_linear_121:2986)"/>
<path d="M159.656 86.7908C159.656 87.2306 159.607 87.6704 159.607 88.1102C159.607 88.55 159.558 88.9899 159.558 89.4297C159.509 90.2116 159.461 90.9935 159.412 91.7265C159.363 92.3129 159.314 92.9482 159.265 93.5346C159.216 94.2677 159.167 94.9518 159.069 95.6849C159.069 95.8315 159.069 95.9292 159.021 96.0758C158.972 96.4179 158.972 96.8088 158.923 97.1509C158.727 98.9591 158.532 100.718 158.336 102.478C158.287 102.82 158.238 103.162 158.189 103.504C158.091 104.335 157.945 105.165 157.847 105.996C157.798 106.436 157.7 106.876 157.651 107.316C157.456 108.684 157.26 110.052 157.016 111.421C156.918 112.105 156.771 112.74 156.673 113.424C156.576 114.108 156.429 114.793 156.331 115.428C156.233 115.965 156.136 116.503 156.038 117.04C155.989 117.187 155.989 117.334 155.94 117.431C155.793 118.116 155.695 118.751 155.549 119.386C155.549 119.484 155.549 119.533 155.549 119.582C155.549 119.582 155.549 119.631 155.549 119.679C155.549 120.119 155.451 120.51 155.353 120.95C155.353 121.048 155.304 121.097 155.304 121.194C155.255 121.292 155.255 121.341 155.207 121.439C155.109 121.781 154.962 122.123 154.815 122.416C153.935 124.126 152.37 125.788 150.023 127.156C149.779 127.303 149.534 127.45 149.29 127.547C149.143 127.596 149.046 127.694 148.899 127.743C148.752 127.84 148.557 127.889 148.41 127.987C148.312 128.036 148.165 128.085 148.068 128.134C147.921 128.183 147.774 128.28 147.676 128.329C147.481 128.427 147.334 128.476 147.138 128.525C146.894 128.622 146.65 128.72 146.405 128.818C146.112 128.916 145.769 129.013 145.427 129.111C145.134 129.209 144.84 129.307 144.547 129.355C144.351 129.404 144.156 129.453 144.009 129.502C143.911 129.551 143.765 129.551 143.667 129.6C143.471 129.649 143.276 129.697 143.031 129.746C142.933 129.746 142.836 129.795 142.738 129.795C142.591 129.844 142.444 129.844 142.298 129.893C142.689 128.329 143.031 126.716 143.422 125.104C144.302 120.999 144.987 117.04 145.525 113.278C146.698 99.0079 146.698 86.8396 146.356 77.3102C145.623 58.0071 143.129 42.3203 142.2 36.5538C141.76 33.8171 141.466 32.3022 140.782 27.8063C138.484 13.3411 136.87 0 136.87 0C136.87 0 146.161 17.4461 148.165 21.9909C149.388 24.7275 150.121 26.78 150.366 28.3927C158.287 46.9139 160.536 67.2433 159.656 86.7908Z" fill="#A4A5E6"/>
<path d="M150.023 31.227C149.436 32.5954 147.138 35.4298 142.151 36.7003C142.151 36.6515 142.151 36.6026 142.151 36.6026C141.711 33.866 141.417 32.351 140.733 27.8551C138.434 13.39 136.821 0.0488281 136.821 0.0488281C136.821 0.0488281 146.111 17.4949 148.116 22.0397C148.947 23.9456 149.583 25.5094 149.925 26.8289C149.974 26.9755 150.023 27.1221 150.023 27.2687C150.121 27.7085 150.219 28.0995 150.267 28.4415C150.414 29.6144 150.365 30.494 150.023 31.227Z" fill="#00A3DC"/>
<defs>
<linearGradient id="paint0_linear_121:2986" x1="249.253" y1="174.859" x2="61.0491" y2="277.174" gradientUnits="userSpaceOnUse">
<stop stop-color="#BDBFC6"/>
<stop offset="0.5379" stop-color="#BBBDC4"/>
<stop offset="0.7317" stop-color="#B4B6BE"/>
<stop offset="0.8694" stop-color="#A9ABB4"/>
<stop offset="0.9803" stop-color="#989AA5"/>
<stop offset="1" stop-color="#9496A2"/>
</linearGradient>
<linearGradient id="paint1_linear_121:2986" x1="5.39249" y1="253.268" x2="107.565" y2="304.384" gradientUnits="userSpaceOnUse">
<stop stop-color="#9496A2"/>
<stop offset="0.021956" stop-color="#9395A1"/>
<stop offset="0.4014" stop-color="#8B8D99"/>
<stop offset="1" stop-color="#898B96"/>
</linearGradient>
<linearGradient id="paint2_linear_121:2986" x1="0.0736375" y1="227.663" x2="273.002" y2="227.663" gradientUnits="userSpaceOnUse">
<stop stop-color="#E4E4E8"/>
<stop offset="0.3023" stop-color="#E9E9ED"/>
<stop offset="1" stop-color="#EFEFF4"/>
</linearGradient>
<linearGradient id="paint3_linear_121:2986" x1="124.32" y1="288.341" x2="149.42" y2="166.072" gradientUnits="userSpaceOnUse">
<stop offset="0.030303" stop-color="#7C1DC9"/>
<stop offset="0.2138" stop-color="#6E41D2"/>
<stop offset="0.6184" stop-color="#4C9BE8"/>
<stop offset="1" stop-color="#2AF6FF"/>
</linearGradient>
<linearGradient id="paint4_linear_121:2986" x1="214.073" y1="231.99" x2="243.532" y2="231.99" gradientUnits="userSpaceOnUse">
<stop stop-color="#58595B"/>
<stop offset="0.2787" stop-color="#5B5C5F"/>
<stop offset="0.5272" stop-color="#646569"/>
<stop offset="0.7636" stop-color="#73757C"/>
<stop offset="0.992" stop-color="#888A95"/>
<stop offset="1" stop-color="#898B96"/>
</linearGradient>
<linearGradient id="paint5_linear_121:2986" x1="246.213" y1="220.215" x2="252.02" y2="220.215" gradientUnits="userSpaceOnUse">
<stop stop-color="#58595B"/>
<stop offset="0.2787" stop-color="#5B5C5F"/>
<stop offset="0.5272" stop-color="#646569"/>
<stop offset="0.7636" stop-color="#73757C"/>
<stop offset="0.992" stop-color="#888A95"/>
<stop offset="1" stop-color="#898B96"/>
</linearGradient>
<linearGradient id="paint6_linear_121:2986" x1="215.634" y1="232.511" x2="244.204" y2="232.511" gradientUnits="userSpaceOnUse">
<stop stop-color="#9496A2"/>
<stop offset="0.021956" stop-color="#9395A1"/>
<stop offset="0.4014" stop-color="#8B8D99"/>
<stop offset="1" stop-color="#898B96"/>
</linearGradient>
<linearGradient id="paint7_linear_121:2986" x1="247.745" y1="220.781" x2="252.749" y2="220.781" gradientUnits="userSpaceOnUse">
<stop stop-color="#9496A2"/>
<stop offset="0.021956" stop-color="#9395A1"/>
<stop offset="0.4014" stop-color="#8B8D99"/>
<stop offset="1" stop-color="#898B96"/>
</linearGradient>
<linearGradient id="paint8_linear_121:2986" x1="124.32" y1="288.341" x2="149.42" y2="166.072" gradientUnits="userSpaceOnUse">
<stop offset="0.030303" stop-color="#7C1DC9"/>
<stop offset="0.2138" stop-color="#6E41D2"/>
<stop offset="0.6184" stop-color="#4C9BE8"/>
<stop offset="1" stop-color="#2AF6FF"/>
</linearGradient>
<linearGradient id="paint9_linear_121:2986" x1="141.181" y1="179.229" x2="134.761" y2="136.345" gradientUnits="userSpaceOnUse">
<stop stop-color="#FFFB03"/>
<stop offset="1" stop-color="#FF7006"/>
</linearGradient>
<linearGradient id="paint10_linear_121:2986" x1="137.851" y1="172.262" x2="138.738" y2="117.224" gradientUnits="userSpaceOnUse">
<stop stop-color="#FFFB03"/>
<stop offset="1" stop-color="#FF7006"/>
</linearGradient>
<linearGradient id="paint11_linear_121:2986" x1="95.327" y1="109.176" x2="121.079" y2="122.948" gradientUnits="userSpaceOnUse">
<stop stop-color="#0085F5"/>
<stop offset="1" stop-color="#002E88"/>
</linearGradient>
<linearGradient id="paint12_linear_121:2986" x1="126.412" y1="112.022" x2="177.484" y2="118.243" gradientUnits="userSpaceOnUse">
<stop stop-color="#0085F5"/>
<stop offset="1" stop-color="#002E88"/>
</linearGradient>
<linearGradient id="paint13_linear_121:2986" x1="100.091" y1="79.1349" x2="184.738" y2="79.1349" gradientUnits="userSpaceOnUse">
<stop offset="0.2919" stop-color="#EAEAF9"/>
<stop offset="0.388" stop-color="#E3E3F7"/>
<stop offset="0.5253" stop-color="#D0D0F2"/>
<stop offset="0.627" stop-color="#BEBEED"/>
</linearGradient>
<linearGradient id="paint14_linear_121:2986" x1="135.109" y1="131.75" x2="139.999" y2="131.75" gradientUnits="userSpaceOnUse">
<stop stop-color="#0085F5"/>
<stop offset="1" stop-color="#002E88"/>
</linearGradient>
<linearGradient id="paint15_linear_121:2986" x1="122.169" y1="18.6894" x2="150.336" y2="18.6894" gradientUnits="userSpaceOnUse">
<stop stop-color="#00FFC5"/>
<stop offset="1" stop-color="#00AEEC"/>
</linearGradient>
</defs>
</svg>
