<svg width="39" height="32" viewBox="0 0 39 32" fill="none" xmlns="http://www.w3.org/2000/svg">
<path d="M37.9045 7.39165L33.8177 0.934863C33.4525 0.355248 32.8039 0 32.1112 0H6.67129C5.97862 0 5.33003 0.355248 4.9648 0.934863L0.878038 7.39165C-1.23146 10.726 0.638751 15.3629 4.58068 15.8927C4.86405 15.9301 5.15371 15.9488 5.44337 15.9488C7.30729 15.9488 8.95711 15.1386 10.0906 13.8858C11.224 15.1386 12.8801 15.9488 14.7378 15.9488C16.6017 15.9488 18.2515 15.1386 19.385 13.8858C20.5184 15.1386 22.1745 15.9488 24.0322 15.9488C25.8961 15.9488 27.5459 15.1386 28.6794 13.8858C29.8191 15.1386 31.4689 15.9488 33.3266 15.9488C33.6225 15.9488 33.9059 15.9301 34.1892 15.8927C38.1438 15.3692 40.0203 10.7322 37.9045 7.39165ZM33.3391 17.9494C32.7094 17.9494 32.086 17.8559 31.4815 17.7125V23.9325H7.30099V17.7125C6.69648 17.8497 6.07307 17.9494 5.44337 17.9494C5.06555 17.9494 4.68143 17.9244 4.30991 17.8746C3.95728 17.8247 3.61094 17.7437 3.2772 17.6502V29.9156C3.2772 31.0188 4.17767 31.91 5.29224 31.91H33.5029C34.6174 31.91 35.5179 31.0188 35.5179 29.9156V17.6502C35.1779 17.7499 34.8378 17.831 34.4852 17.8746C34.1011 17.9244 33.7233 17.9494 33.3391 17.9494Z" fill="#2B1D8A"/>
</svg>
